<?xml version="1.0" standalone="no"?>
<!DOCTYPE svg PUBLIC "-//W3C//DTD SVG 20010904//EN"
 "http://www.w3.org/TR/2001/REC-SVG-20010904/DTD/svg10.dtd">
<svg version="1.0" xmlns="http://www.w3.org/2000/svg"
 width="796.000000pt" height="772.000000pt" viewBox="0 0 796.000000 772.000000"
 preserveAspectRatio="xMidYMid meet">
<metadata>
Created by potrace 1.16, written by Peter Selinger 2001-2019
</metadata>
<g transform="translate(0.000000,772.000000) scale(0.100000,-0.100000)"
fill="#000000" stroke="none">
<path d="M3980 7680 c2374 -5 2516 -6 2540 -22 19 -14 21 -18 7 -18 -9 0 -17
5 -17 10 0 6 -8 10 -17 10 -15 0 -16 -2 -3 -10 11 -7 11 -10 2 -10 -7 0 -10
-5 -7 -10 4 -6 11 -8 16 -5 5 3 7 0 4 -7 -3 -8 -21 -13 -47 -12 -33 1 -43 6
-49 23 -6 16 -4 21 7 21 8 0 12 5 9 11 -5 7 -15 5 -31 -6 -14 -9 -29 -13 -34
-10 -5 3 -7 0 -4 -8 3 -8 0 -18 -6 -22 -9 -6 -9 -9 0 -15 8 -5 9 -13 4 -23 -9
-16 -12 -17 -40 -17 -11 0 -14 -6 -10 -17 4 -13 1 -12 -13 5 -11 12 -24 22
-30 22 -8 0 -8 5 1 14 7 8 18 13 23 13 6 -1 9 5 7 14 -1 9 4 19 12 22 10 4 13
-2 12 -19 0 -13 -5 -24 -11 -24 -5 0 -3 -5 5 -10 19 -12 39 5 23 21 -6 6 -9
17 -7 24 7 18 -14 29 -30 16 -7 -6 -15 -8 -18 -5 -3 3 -5 -3 -5 -13 1 -10 -5
-18 -13 -18 -8 0 -18 -4 -22 -10 -6 -8 -12 13 -10 36 1 3 -6 6 -14 6 -8 0 -14
-4 -14 -9 0 -4 4 -8 9 -8 5 0 8 -15 7 -32 -1 -22 -7 -34 -19 -36 -9 -2 -17 -8
-17 -13 0 -6 4 -8 9 -5 5 3 9 -5 9 -19 0 -29 -18 -37 -43 -19 -18 13 -10 20
18 15 5 -1 6 7 2 18 -3 11 -1 22 5 26 6 3 7 12 3 18 -4 7 0 6 10 -2 19 -15 23
-1 5 17 -9 9 -9 12 2 12 7 0 10 3 7 6 -4 4 -14 1 -24 -7 -14 -12 -16 -12 -11
1 4 11 -2 15 -23 16 -21 1 -29 -4 -29 -16 0 -14 5 -17 23 -12 21 5 21 5 5 -11
-27 -28 -65 -10 -48 22 6 13 2 16 -26 16 -19 0 -34 -3 -34 -7 0 -5 10 -8 23
-8 18 0 23 -6 23 -24 0 -15 -5 -22 -13 -19 -7 3 -15 -2 -19 -10 -7 -19 -31
-29 -39 -16 -4 5 -3 9 2 8 22 -4 25 2 7 15 -14 11 -21 11 -26 3 -6 -9 -8 -8
-8 1 0 7 -4 10 -10 7 -15 -9 -12 -25 5 -25 8 0 15 -6 15 -14 0 -9 10 -14 28
-14 15 0 34 -1 42 -3 8 -2 14 1 13 8 -2 7 6 17 17 23 12 6 20 7 20 1 0 -5 -6
-12 -12 -15 -10 -3 -9 -8 3 -15 11 -7 15 -19 11 -36 -5 -30 -22 -33 -29 -5 -4
16 -8 18 -19 9 -12 -10 -13 -9 -8 5 7 18 -20 23 -31 6 -4 -6 -16 -10 -28 -8
-16 2 -21 -2 -19 -14 5 -28 -4 -21 -23 18 -14 29 -19 33 -31 23 -12 -10 -12
-14 -2 -20 10 -7 9 -9 -4 -9 -10 0 -15 -7 -13 -17 4 -27 -4 -34 -24 -21 -11 7
-17 18 -13 27 5 13 3 14 -9 4 -8 -7 -25 -10 -37 -6 -13 3 -22 1 -22 -6 0 -7 5
-9 12 -5 7 4 8 3 4 -4 -4 -7 -3 -12 2 -12 5 0 9 -7 9 -15 0 -10 -8 -7 -25 10
-14 14 -33 25 -43 25 -23 0 -33 16 -14 24 8 3 15 13 15 23 0 15 -3 14 -16 -5
-8 -12 -21 -22 -28 -22 -7 0 -13 -7 -13 -15 0 -9 6 -14 14 -11 7 3 13 -1 13
-9 0 -8 4 -15 10 -15 5 0 7 -6 4 -14 -3 -8 -1 -17 5 -21 6 -3 12 0 13 7 0 7 2
18 3 23 2 6 3 14 4 18 1 10 31 -18 31 -29 0 -4 8 -12 17 -19 16 -12 14 -12
-10 -8 -16 3 -24 10 -20 17 4 6 -1 4 -11 -4 -22 -18 -53 -23 -61 -10 -4 6 1 7
12 3 16 -6 16 -5 4 10 -12 15 -14 15 -30 -2 -20 -24 -67 -40 -56 -20 4 8 -2 4
-12 -9 -14 -17 -21 -20 -30 -11 -6 6 -19 9 -28 5 -12 -4 -14 -10 -5 -25 14
-28 13 -51 -4 -45 -7 3 -20 -6 -29 -19 -11 -17 -23 -24 -41 -22 -16 2 -26 -2
-26 -10 0 -14 -24 -14 -37 0 -5 4 -1 5 7 0 8 -5 12 -4 7 0 -13 15 -37 14 -37
-1 0 -8 5 -14 11 -14 5 0 8 -4 5 -9 -3 -5 4 -12 17 -15 l22 -6 -25 -20 c-16
-13 -19 -18 -7 -14 10 4 25 0 35 -8 9 -9 24 -18 32 -22 8 -3 2 -4 -14 0 -26 5
-28 3 -17 -10 11 -13 11 -16 -3 -16 -9 0 -16 5 -16 10 0 6 -4 10 -8 10 -11 0
-9 -37 3 -47 4 -5 5 -2 1 5 -5 8 -1 12 11 12 10 0 30 6 45 14 20 10 29 11 39
2 9 -8 10 -8 5 2 -4 6 -2 12 3 12 6 0 12 -7 13 -15 0 -8 1 -19 2 -25 1 -5 -3
-9 -9 -7 -5 1 -9 5 -8 8 1 3 -10 5 -25 3 -15 -1 -34 -3 -42 -3 -13 -1 -13 -2
0 -11 12 -8 9 -10 -12 -10 -15 0 -30 -5 -33 -10 -10 -16 -25 -1 -25 26 0 29
-25 32 -40 5 -14 -27 -13 -41 3 -35 8 3 13 -5 15 -21 1 -15 -4 -28 -13 -31
-24 -10 -17 -32 9 -29 18 2 23 -2 22 -18 -1 -14 6 -23 18 -25 12 -3 16 0 11 8
-5 8 -3 11 6 8 8 -3 13 -11 12 -17 -3 -11 9 -15 37 -12 12 2 13 0 1 -7 -7 -5
-21 -8 -30 -5 -9 2 -27 0 -41 -6 -20 -8 -10 -9 45 -9 39 1 62 3 52 5 -9 3 -15
8 -12 13 3 5 -6 17 -19 27 -17 14 -22 24 -15 34 17 27 9 28 -16 3 -14 -14 -30
-22 -36 -18 -7 4 -7 9 -1 13 5 3 8 14 6 23 -2 14 1 16 16 8 20 -11 38 4 20 15
-12 7 -4 25 11 25 6 0 7 -4 4 -10 -3 -5 2 -21 11 -36 15 -22 15 -27 3 -35 -12
-8 -12 -10 1 -8 8 1 22 1 30 0 13 -1 13 -2 0 -12 -13 -9 -13 -10 0 -6 8 2 14
11 12 21 -2 9 0 16 2 16 12 0 44 -34 42 -44 -2 -6 -1 -8 1 -3 3 4 9 7 14 7 6
0 7 -5 3 -12 -4 -7 -3 -8 4 -4 15 9 16 26 1 26 -12 0 -39 25 -39 35 0 4 7 5
15 1 8 -3 15 -1 15 5 0 6 7 6 20 -1 15 -8 21 -6 30 10 6 11 16 17 22 14 7 -5
5 -12 -8 -21 -10 -7 -23 -28 -29 -46 -8 -24 -17 -33 -37 -35 -16 -2 -28 1 -28
7 0 6 -8 11 -17 11 -16 0 -16 -1 -1 -16 15 -16 49 -21 78 -13 8 2 14 -1 13 -7
-1 -6 3 -11 10 -11 22 -1 83 -32 64 -33 -10 0 -26 4 -35 9 -9 5 -33 13 -52 17
-47 11 -3765 15 -3856 4 -127 -15 -324 -95 -439 -178 -125 -91 -259 -250 -333
-397 -39 -77 -72 -196 -86 -308 -21 -161 -22 -2145 -2 -2287 33 -231 149 -452
318 -609 26 -24 45 -47 43 -52 -3 -4 0 -11 6 -15 8 -4 9 -3 5 4 -12 20 5 13
44 -18 21 -17 43 -30 49 -30 7 0 16 -10 21 -22 5 -13 9 -18 9 -11 1 14 62 -13
74 -33 4 -7 14 -11 21 -8 8 3 17 1 21 -5 3 -6 15 -11 26 -11 10 0 19 -4 19
-10 0 -5 7 -10 16 -10 25 0 119 -33 106 -38 -7 -2 -10 -8 -6 -13 3 -5 0 -9 -5
-9 -6 0 -11 -7 -11 -15 0 -8 -4 -15 -10 -15 -5 0 -10 4 -10 9 0 11 -35 20 -48
12 -13 -8 -34 -61 -24 -61 4 0 13 14 21 31 7 16 15 28 18 25 9 -9 10 -41 0
-47 -5 -4 7 -13 27 -20 20 -7 36 -18 36 -24 0 -7 12 -10 29 -7 26 3 29 7 22
26 -10 24 -11 30 -11 52 0 8 -4 13 -9 10 -8 -5 -8 15 -1 34 1 3 2 8 2 11 -1 4
15 3 36 -1 20 -4 67 -11 103 -15 l67 -6 0 -237 c0 -270 -4 -326 -23 -318 -7 2
-18 -1 -25 -7 -10 -10 -10 -7 -1 11 7 12 17 20 22 16 13 -8 7 29 -6 38 -6 5
-5 8 4 8 11 0 11 3 1 15 -9 10 -9 15 -1 15 6 0 11 5 11 11 0 5 -4 8 -9 5 -10
-7 -9 20 2 30 13 13 8 199 -5 213 -10 11 -10 13 0 7 9 -5 12 8 12 56 0 44 -3
59 -10 48 -5 -8 -10 -10 -10 -5 0 6 6 17 13 24 9 11 9 13 0 7 -16 -9 -16 -1
-3 25 13 23 4 28 -53 32 -29 3 -37 0 -36 -12 3 -37 -2 -46 -25 -46 -13 0 -24
4 -23 9 1 5 -3 10 -10 13 -7 2 -10 -3 -8 -14 2 -10 4 -24 4 -32 1 -9 10 -12
29 -9 21 3 28 0 28 -13 0 -10 -7 -17 -17 -16 -10 1 -15 5 -13 9 3 4 0 8 -5 8
-6 0 -11 -4 -11 -9 0 -4 -11 -6 -24 -4 -33 7 -43 -15 -12 -27 34 -13 33 -15
-8 -15 -25 -1 -32 3 -28 14 3 9 1 12 -6 7 -6 -3 -16 2 -21 13 -8 14 -8 20 1
23 9 3 9 6 0 12 -7 4 -12 2 -12 -4 0 -6 -5 -8 -11 -5 -6 4 -9 0 -7 -11 2 -14
-2 -18 -15 -16 -11 2 -24 -8 -35 -27 -9 -17 -21 -31 -25 -31 -5 0 -6 4 -2 9 3
5 1 12 -4 16 -6 3 -8 -3 -6 -15 4 -19 3 -20 -20 -3 -12 10 -20 22 -17 27 3 5
-2 7 -11 3 -9 -3 -19 -2 -22 3 -9 15 -37 -1 -30 -18 3 -8 -3 -24 -12 -35 -18
-19 -17 -19 7 -13 25 7 25 7 3 -6 -23 -14 -23 -14 -3 -28 11 -8 20 -20 20 -27
0 -7 4 -13 8 -13 13 0 7 41 -7 50 -11 6 -11 8 0 12 9 3 10 11 1 36 -9 26 -8
32 4 32 7 0 14 -5 14 -11 0 -5 5 -7 10 -4 6 3 10 1 10 -5 0 -6 5 -8 11 -4 8 4
9 0 4 -15 -5 -16 -3 -20 8 -15 8 3 18 0 23 -7 5 -9 2 -10 -9 -6 -10 4 -17 2
-17 -4 0 -7 -10 -9 -27 -4 -21 5 -24 4 -16 -7 6 -7 13 -25 15 -41 5 -23 2 -27
-13 -22 -11 4 -19 2 -19 -5 0 -6 4 -9 9 -5 5 3 12 1 15 -4 4 -5 2 -12 -4 -16
-17 -11 -2 -23 23 -19 12 2 16 2 10 -2 -9 -4 -10 -11 -3 -23 5 -10 6 -21 3
-25 -13 -12 13 -5 32 10 16 12 17 17 7 23 -20 12 -16 25 10 33 l23 6 -23 1
c-30 1 -20 18 11 19 18 0 23 -6 22 -28 0 -22 -3 -26 -12 -18 -7 6 -13 9 -14 7
-2 -8 -9 -54 -11 -66 -1 -9 -5 -10 -14 -2 -8 7 -13 6 -16 -3 -4 -10 -8 -10
-21 1 -10 8 -17 9 -17 3 0 -6 10 -18 22 -26 25 -18 17 -22 -12 -6 -11 6 -21
27 -25 52 -8 47 -29 85 -39 70 -3 -6 0 -12 6 -15 10 -4 11 -7 1 -18 -7 -7 -13
-20 -13 -28 0 -11 4 -10 15 5 8 10 15 14 15 8 0 -6 -9 -19 -19 -28 -15 -13
-20 -14 -24 -4 -3 7 -6 3 -6 -9 -1 -21 7 -27 27 -21 4 2 6 7 4 11 -1 5 2 6 8
2 8 -5 7 -11 -1 -21 -12 -14 -3 -19 29 -15 6 1 12 -4 12 -12 0 -8 -10 -13 -22
-13 -15 1 -23 -5 -22 -15 1 -9 -7 -21 -17 -28 -11 -6 -19 -7 -19 -2 0 5 5 11
10 13 13 4 18 52 6 55 -16 3 -26 27 -26 64 0 25 -5 36 -15 36 -10 0 -13 -7 -9
-24 4 -13 2 -23 -5 -23 -6 0 -9 -6 -7 -12 1 -7 1 -10 -1 -5 -3 4 -9 5 -14 1
-5 -3 -9 -2 -8 3 1 4 1 15 0 23 -1 11 -4 10 -13 -4 -9 -15 -7 -22 8 -33 25
-18 42 -16 46 5 3 9 6 1 9 -19 l5 -37 -26 16 c-14 9 -22 12 -18 8 4 -5 0 -22
-9 -37 -12 -20 -20 -25 -29 -18 -8 7 -14 7 -19 -1 -3 -5 0 -10 9 -10 8 0 17
-6 19 -12 4 -10 6 -10 6 -1 1 7 10 17 20 23 16 8 19 7 16 -8 -1 -9 -8 -16 -14
-15 -6 2 -11 -4 -11 -13 0 -14 3 -14 15 -4 20 17 31 5 15 -16 -12 -13 -11 -17
1 -25 10 -6 11 -9 1 -9 -7 0 -15 6 -18 13 -6 15 -34 19 -31 4 1 -5 -4 -12 -12
-15 -8 -3 -11 0 -7 7 4 6 3 11 -2 11 -5 0 -12 -12 -15 -26 -5 -28 26 -70 43
-59 12 7 13 26 3 24 -20 -3 -26 2 -13 11 12 8 12 10 -5 10 -15 0 -16 3 -7 9
17 10 64 2 56 -10 -3 -5 0 -10 5 -10 6 -1 16 -2 23 -3 18 -2 22 -26 4 -26 -9
0 -16 5 -16 10 0 6 -7 10 -16 10 -12 0 -10 -7 11 -32 23 -27 25 -32 11 -40 -9
-5 -14 -13 -11 -19 4 -5 2 -9 -4 -9 -5 0 -12 -8 -14 -17 -3 -13 -5 -11 -6 6 0
13 7 29 16 36 15 11 15 15 4 29 -10 12 -17 13 -27 5 -10 -8 -17 -7 -29 5 -20
19 -29 21 -18 4 14 -23 13 -40 -2 -28 -10 8 -15 8 -20 0 -5 -8 -14 -6 -31 4
-33 23 -47 20 -39 -6 7 -23 7 -23 -10 -3 -11 14 -18 16 -21 8 -9 -21 -23 -15
-17 7 3 11 10 17 16 13 6 -3 7 -1 3 5 -12 20 3 33 24 22 13 -7 19 -6 24 6 3 8
2 12 -4 9 -6 -3 -10 -2 -10 4 0 6 -7 8 -15 5 -8 -4 -15 -1 -15 5 0 6 -5 11
-11 11 -5 0 -7 -6 -4 -12 4 -7 1 -6 -7 2 -7 8 -27 14 -46 13 -24 -1 -32 3 -30
14 4 20 -29 26 -36 6 -3 -8 -1 -11 4 -8 6 3 10 -4 11 -17 0 -13 3 -18 5 -12 4
9 13 9 35 1 41 -16 47 -46 26 -134 -3 -13 0 -23 8 -27 9 -3 12 0 8 10 -3 7 0
14 7 14 6 0 9 3 7 8 -3 4 4 16 14 26 25 26 25 1 0 -25 -21 -23 -21 -53 0 -55
8 0 17 -2 22 -4 4 -1 12 -4 17 -5 6 -1 12 -4 15 -5 3 -1 9 -3 14 -4 5 0 12 -4
16 -8 4 -4 -8 -4 -27 -1 -18 2 -34 9 -36 13 -2 5 -10 6 -17 4 -8 -3 -24 4 -37
16 -20 18 -24 19 -34 6 -6 -9 -13 -14 -15 -12 -2 3 -5 -7 -5 -20 -1 -13 2 -21
7 -18 14 8 11 -3 -5 -19 -13 -13 -12 -15 9 -15 15 0 22 5 19 13 -7 18 9 26 26
13 12 -8 12 -9 -2 -4 -10 3 -18 1 -18 -4 0 -6 7 -10 16 -10 8 0 12 -5 9 -10
-4 -6 -10 -8 -13 -6 -4 2 -18 -2 -32 -10 l-25 -14 30 5 c26 5 27 4 8 -4 -13
-6 -23 -15 -23 -21 0 -8 -6 -8 -20 0 -16 9 -19 8 -13 -6 5 -12 3 -15 -6 -9
-10 5 -11 2 -6 -14 4 -14 3 -21 -5 -19 -7 2 -15 -3 -18 -11 -3 -10 0 -12 12
-8 9 4 16 2 16 -3 0 -6 -6 -10 -14 -10 -22 0 -28 -17 -16 -40 7 -13 7 -20 0
-20 -5 0 -10 7 -10 16 0 8 -5 12 -10 9 -6 -4 -9 -1 -8 6 2 9 -9 14 -31 14 -20
0 -36 6 -39 14 -3 8 0 11 7 7 12 -8 14 7 5 41 -4 13 -10 21 -14 18 -4 -2 -15
4 -25 15 -17 18 -17 20 -1 20 14 0 15 4 6 20 -14 25 -30 17 -30 -15 0 -13 -6
-26 -13 -28 -6 -3 1 -6 16 -6 20 -1 26 -5 20 -13 -12 -20 -14 -50 -3 -43 5 3
10 13 10 21 0 17 16 19 26 2 5 -7 3 -8 -6 -3 -8 5 -11 3 -8 -6 3 -8 1 -22 -4
-33 -8 -15 -12 -16 -19 -5 -7 11 -9 10 -9 -4 0 -14 5 -17 23 -11 l22 7 -20
-24 c-15 -18 -16 -21 -2 -10 9 8 21 11 24 7 4 -4 1 -11 -6 -16 -11 -6 -10 -9
5 -13 10 -2 2 -5 -18 -6 -37 -1 -45 8 -39 42 1 5 -3 6 -8 3 -5 -3 -14 1 -21 9
-7 8 -17 12 -23 8 -7 -4 -8 0 -3 13 13 33 15 50 5 65 -8 11 -9 10 -7 -6 2 -12
-2 -19 -10 -17 -9 2 -10 -3 -4 -15 5 -10 7 -24 5 -30 -3 -7 8 -23 23 -36 31
-27 28 -65 -4 -52 -33 14 -57 11 -56 -7 1 -10 -2 -18 -7 -18 -5 0 -9 7 -9 15
0 8 -9 20 -20 27 -11 7 -20 18 -20 25 0 7 -4 13 -10 13 -5 0 -10 -4 -10 -10 0
-5 -6 -8 -12 -6 -7 1 -10 1 -5 -1 4 -3 7 -12 8 -21 0 -10 3 -12 5 -5 4 8 13 5
30 -9 17 -15 21 -24 12 -29 -6 -4 4 -6 23 -5 49 4 49 4 42 24 -6 15 -4 15 15
-2 18 -16 20 -22 9 -34 -9 -12 -9 -14 0 -9 14 9 36 -26 25 -39 -4 -5 0 -3 9 4
13 10 19 8 33 -7 12 -13 14 -21 6 -26 -5 -3 -7 -11 -4 -17 4 -6 -1 -8 -15 -3
-16 5 -20 3 -15 -9 3 -9 2 -16 -4 -16 -11 0 -11 18 1 37 4 6 2 15 -4 19 -7 4
-9 3 -5 -4 4 -7 -1 -10 -14 -9 -13 1 -16 5 -10 11 6 6 10 17 9 26 0 11 -2 10
-8 -3 -7 -18 -8 -18 -21 -1 -11 13 -12 16 -2 10 11 -7 12 -4 3 13 -7 11 -14
21 -17 21 -3 0 -2 -6 2 -12 6 -10 4 -10 -7 -1 -17 17 -32 17 -23 1 6 -10 5
-10 -7 -1 -12 10 -19 8 -33 -9 -16 -18 -16 -22 -3 -35 12 -12 19 -13 33 -4 17
11 16 11 -5 5 -17 -4 -22 -2 -19 7 4 13 13 14 48 10 7 -1 7 -8 0 -22 -7 -11
-9 -23 -6 -27 3 -3 6 1 6 9 1 10 4 9 15 -5 7 -10 18 -15 24 -11 6 3 11 1 11
-4 0 -12 -32 -14 -68 -4 -18 4 -20 8 -10 14 9 6 5 9 -14 9 -15 0 -30 -5 -34
-12 -4 -6 -3 -8 4 -4 6 3 13 2 17 -4 3 -5 -1 -10 -9 -10 -9 0 -16 -7 -16 -16
0 -13 -3 -14 -14 -5 -11 9 -15 7 -19 -8 -2 -10 -1 -25 4 -32 5 -8 9 -10 9 -5
0 5 6 3 14 -3 11 -9 15 -8 20 5 9 22 8 26 -5 18 -8 -5 -8 -1 0 14 6 11 20 22
32 25 11 3 18 3 15 0 -3 -4 -1 -12 4 -18 14 -17 -9 -68 -27 -61 -7 3 -13 -1
-13 -9 0 -7 13 -16 30 -20 24 -5 28 -10 21 -23 -12 -24 -12 -82 0 -82 6 0 7
-4 4 -10 -6 -9 -34 8 -32 20 0 3 -3 13 -8 24 -6 13 -3 21 8 28 9 4 14 15 11
23 -4 8 -10 13 -14 10 -5 -3 -12 -1 -15 5 -5 8 -11 8 -20 0 -11 -9 -12 -7 -8
8 3 12 -2 22 -12 26 -13 4 -16 2 -11 -9 3 -8 1 -15 -4 -15 -6 0 -10 -6 -10
-14 0 -7 -9 -16 -19 -19 -14 -3 -18 -1 -14 9 3 9 -7 19 -31 29 -20 8 -36 20
-36 25 0 6 -9 10 -19 10 -11 0 -23 5 -26 10 -3 6 -11 10 -16 10 -6 0 -7 -4 -4
-10 3 -5 -1 -10 -9 -10 -19 0 -19 1 -5 36 10 28 10 28 -11 9 -11 -10 -19 -24
-16 -31 2 -6 0 -16 -5 -21 -5 -5 5 -7 27 -5 23 3 34 1 31 -5 -4 -6 3 -8 16 -6
26 4 91 -33 82 -47 -11 -17 5 -32 20 -20 8 7 18 9 23 6 13 -8 12 -58 0 -73 -5
-7 -7 -17 -3 -22 3 -7 0 -8 -9 -5 -9 3 -16 1 -16 -5 0 -17 37 -13 44 4 6 17
36 20 36 4 0 -7 -8 -18 -18 -26 -9 -8 -12 -12 -6 -9 7 3 14 -1 18 -9 6 -17
-19 -21 -29 -5 -10 16 -25 12 -25 -7 0 -9 -3 -14 -6 -10 -3 3 -12 0 -19 -6
-10 -9 -10 -15 -1 -26 8 -11 8 -13 -1 -8 -7 4 -16 0 -22 -10 -6 -10 -11 -13
-11 -7 0 5 5 15 12 22 7 7 8 12 4 12 -5 0 -3 7 4 15 7 8 9 15 4 15 -4 0 1 7
12 15 17 13 16 14 -14 5 -25 -7 -32 -6 -29 3 2 7 10 12 17 12 7 0 15 6 18 14
3 10 0 12 -12 8 -10 -4 -21 -7 -26 -7 -5 0 -10 -10 -12 -22 -2 -13 -9 -22 -17
-20 -8 2 -11 -3 -8 -13 4 -8 1 -15 -5 -15 -6 0 1 -11 16 -25 30 -28 27 -45
-10 -45 -13 0 -24 -4 -24 -10 0 -12 2 -12 34 0 14 5 28 5 30 1 3 -5 -8 -11
-24 -14 -20 -4 -28 -11 -24 -20 3 -8 -2 -17 -11 -21 -9 -3 -13 -2 -10 4 3 6 2
10 -4 10 -5 0 -14 -7 -19 -16 -8 -15 -10 -15 -15 0 -4 9 -11 16 -16 16 -6 0
-8 -7 -5 -15 7 -17 -21 -21 -31 -5 -10 16 -22 12 -28 -11 -3 -11 -14 -23 -24
-25 -11 -3 -25 -14 -31 -25 -13 -20 -12 -20 15 -2 15 10 31 22 35 28 10 14 45
14 45 0 0 -7 -8 -10 -20 -7 -19 5 -18 3 3 -18 18 -18 24 -20 31 -9 5 8 7 20 4
27 -3 7 0 10 5 7 6 -4 10 -12 9 -18 -3 -27 2 -36 23 -40 13 -3 3 -4 -21 -4
-25 1 -45 6 -48 14 -6 15 -29 17 -38 3 -3 -5 0 -7 8 -4 11 4 13 -1 9 -21 -3
-17 0 -25 8 -23 19 4 20 -29 2 -44 -12 -10 -14 -10 -8 -1 4 8 2 13 -5 13 -7 0
-4 7 7 15 18 14 18 14 -3 8 -16 -4 -22 -12 -21 -29 2 -14 9 -24 18 -25 13 0
13 -1 0 -7 -8 -4 -16 -13 -18 -20 -2 -10 2 -10 17 -3 15 9 20 7 24 -8 3 -14 1
-18 -9 -14 -8 3 -14 0 -14 -7 0 -8 9 -11 25 -8 13 3 22 1 19 -3 -3 -5 -1 -9 5
-9 6 0 8 -7 5 -15 -4 -9 0 -15 7 -15 10 -1 8 -4 -3 -11 -12 -7 -25 -6 -40 2
-13 7 -25 13 -28 13 -2 1 -3 11 -2 22 3 22 -23 40 -33 23 -9 -14 -27 0 -21 16
3 8 -2 19 -10 26 -12 9 -12 15 -2 27 11 13 11 14 -1 7 -11 -6 -13 -2 -7 21 l7
29 -17 -23 c-13 -19 -14 -29 -5 -48 8 -18 8 -24 -1 -24 -7 0 -3 -7 8 -16 10
-8 13 -13 7 -9 -7 3 -13 4 -13 1 0 -3 15 -13 32 -21 18 -8 24 -14 13 -12 -17
3 -20 -2 -21 -31 l-2 -35 18 23 c21 28 55 21 47 -10 -3 -11 0 -18 7 -17 6 1
11 -5 11 -13 0 -8 -5 -14 -12 -13 -16 3 -12 -35 5 -42 11 -4 10 -9 -2 -27 -14
-20 -14 -24 0 -39 9 -10 14 -24 11 -31 -3 -8 -9 -2 -16 15 -6 15 -16 27 -22
27 -8 0 -6 7 5 19 16 17 16 19 0 25 -12 4 -15 2 -11 -9 8 -19 -8 -28 -21 -12
-14 18 -11 47 6 45 8 -2 17 2 19 9 4 12 -26 11 -46 -1 -9 -6 -61 66 -61 84 0
5 -4 10 -8 10 -4 0 -12 13 -18 28 -8 21 -8 31 3 40 7 7 13 20 13 30 0 15 -2
15 -10 2 -7 -11 -10 -11 -10 -2 0 7 -4 11 -10 7 -5 -3 -6 -13 -3 -22 4 -10 2
-14 -4 -10 -18 11 -23 48 -7 54 8 3 14 10 14 16 0 7 -4 7 -12 -1 -7 -7 -16
-12 -22 -12 -5 0 -6 3 -3 6 3 4 0 16 -8 26 -7 11 -11 27 -8 36 4 9 2 13 -4 9
-13 -8 -26 35 -17 57 4 9 1 16 -6 16 -10 0 -10 3 0 15 11 13 10 14 -2 10 -11
-5 -17 3 -22 27 -4 19 -2 34 4 36 5 2 10 13 10 23 0 11 -5 17 -10 14 -6 -4 -8
-11 -5 -16 4 -5 2 -9 -4 -9 -11 0 -17 23 -36 160 -12 89 -15 364 -15 1828 0
947 -3 1722 -7 1722 -10 0 -8 -3405 1 -3503 9 -89 48 -275 77 -359 27 -81 103
-234 160 -323 60 -92 168 -217 181 -208 6 3 8 1 5 -4 -12 -20 216 -208 240
-198 8 2 12 1 9 -4 -11 -17 132 -95 267 -145 143 -53 287 -84 449 -96 212 -16
5173 -8 5248 8 166 37 246 59 344 99 470 188 799 596 884 1098 16 92 17 296
17 2630 l0 2530 -27 135 c-84 410 -328 754 -693 972 -87 52 -257 122 -355 147
-212 52 -147 51 -2855 48 l-2510 -2 2515 -5z m1679 -327 c-1 -5 0 -10 1 -13 7
-19 7 -40 -1 -40 -5 0 -9 -7 -9 -16 0 -8 -4 -12 -10 -9 -15 9 -12 -6 5 -25 13
-14 12 -16 -5 -17 -11 -1 -20 3 -20 9 0 18 -14 -1 -15 -21 -1 -10 5 -18 12
-18 7 0 13 4 13 8 0 4 8 6 18 4 9 -1 16 -9 14 -16 -2 -8 10 -1 27 15 17 17 31
25 31 19 0 -6 -6 -14 -12 -16 -10 -4 -10 -6 0 -6 7 -1 15 6 18 14 5 12 8 12
22 -2 9 -9 17 -21 18 -27 3 -27 17 -55 25 -50 14 8 11 -2 -4 -14 -10 -8 -13
-6 -14 11 -1 12 -9 27 -18 33 -8 6 -15 16 -15 23 0 14 -17 15 -25 1 -3 -5 -1
-10 4 -10 6 0 11 -5 11 -12 0 -6 -8 -4 -19 6 -18 16 -19 16 -23 -7 -3 -15 0
-24 8 -24 7 0 11 4 8 9 -3 4 2 5 12 1 15 -5 14 -7 -2 -16 -25 -13 -34 -28 -27
-42 4 -5 3 -7 -2 -3 -4 4 -16 -3 -26 -15 l-18 -22 -1 27 c0 18 4 26 13 22 7
-2 13 4 14 16 1 11 -2 20 -8 20 -5 0 -9 -5 -9 -11 0 -5 -4 -8 -8 -5 -4 2 -9
-9 -10 -26 -3 -36 -9 -48 -25 -48 -8 0 -8 3 -2 8 12 9 18 32 8 31 -20 -3 -23
2 -9 17 9 8 16 21 16 27 0 7 -7 4 -15 -7 -7 -10 -18 -15 -23 -12 -14 9 -2 48
13 42 7 -2 18 1 24 7 8 8 11 7 11 -6 0 -9 4 -17 9 -17 6 0 9 9 8 19 -1 13 -7
18 -21 15 -11 -2 -25 1 -33 7 -7 7 -14 9 -14 5 -1 -3 -2 -9 -3 -13 -6 -27 -29
-54 -38 -45 -11 11 -1 55 11 48 4 -3 13 4 20 16 7 11 8 17 2 13 -6 -3 -11 -1
-11 4 0 6 -5 11 -11 11 -8 0 -8 -5 1 -15 8 -10 9 -15 2 -15 -6 0 -16 9 -21 19
-8 15 -7 20 5 25 9 4 22 2 29 -4 9 -8 15 -8 20 0 3 5 -1 10 -9 10 -9 0 -16 9
-16 20 0 25 16 26 29 3 8 -16 11 -14 22 12 7 17 13 32 14 35 8 24 19 40 26 40
5 0 8 -3 8 -7z m-3394 -1543 c147 -24 256 -80 347 -179 53 -57 103 -142 96
-162 -4 -13 -206 -107 -248 -115 -25 -5 -31 -2 -45 27 -25 50 -74 98 -125 122
-35 17 -64 22 -130 22 -75 0 -91 -3 -131 -27 -106 -62 -118 -167 -27 -243 38
-32 106 -64 251 -116 189 -68 273 -115 355 -195 91 -91 124 -157 130 -265 13
-228 -151 -416 -412 -474 -117 -26 -336 -17 -428 17 -143 53 -255 147 -309
259 -48 97 -49 95 23 128 85 40 188 81 205 81 7 0 24 -22 37 -49 35 -68 67
-103 123 -133 68 -37 150 -50 231 -38 120 20 182 73 182 159 0 88 -62 144
-229 207 -368 137 -454 193 -533 346 -31 59 -32 69 -33 168 0 103 1 108 39
185 60 121 146 196 277 242 125 42 235 53 354 33z m3173 -14 c130 -37 264
-139 320 -244 18 -33 32 -66 32 -74 0 -12 -234 -128 -258 -128 -5 0 -15 14
-22 30 -18 43 -85 109 -133 131 -65 29 -193 26 -255 -5 -65 -34 -96 -83 -90
-140 10 -90 60 -129 259 -202 322 -118 426 -190 502 -343 30 -61 32 -73 32
-166 0 -91 -3 -106 -31 -165 -42 -89 -125 -176 -212 -223 -192 -103 -476 -105
-682 -5 -113 55 -230 192 -255 299 -6 24 -2 27 62 54 37 15 91 38 118 50 93
41 90 42 117 -17 47 -102 139 -165 257 -175 148 -12 262 46 278 142 17 106
-59 170 -298 254 -280 97 -400 183 -471 337 -19 41 -23 66 -23 155 0 103 1
108 39 183 73 143 219 242 401 270 56 8 260 -3 313 -18z m-2130 -14 c6 -5 28
-48 48 -98 20 -49 59 -145 89 -214 29 -69 74 -177 100 -240 129 -318 165 -394
165 -347 0 8 48 126 106 263 58 137 139 329 179 426 41 97 79 186 85 198 10
19 20 20 198 20 103 0 192 -4 199 -8 10 -6 10 -159 3 -702 -5 -382 -12 -732
-16 -778 l-6 -83 -146 3 -147 3 3 500 c2 275 6 508 8 518 3 9 1 17 -5 17 -6 0
-11 -5 -11 -11 0 -12 -72 -176 -263 -604 l-94 -210 -97 -5 c-79 -4 -100 -2
-110 10 -23 26 -356 785 -356 809 0 6 -5 11 -11 11 -6 0 -8 -17 -5 -47 3 -27
6 -259 6 -518 l1 -470 -150 -3 c-117 -2 -151 0 -151 10 1 7 -1 186 -4 398 -8
537 -8 1139 -1 1150 7 12 364 13 383 2z m3027 -848 c34 -16 68 -49 590 -577
160 -161 370 -370 467 -464 151 -145 178 -176 188 -213 13 -49 6 -105 -19
-143 -9 -15 -264 -275 -566 -578 -301 -303 -564 -570 -585 -595 -57 -70 -96
-94 -150 -94 -56 0 -104 29 -134 80 -20 34 -21 49 -19 467 l1 433 -851 2 -852
3 -55 26 c-77 36 -121 77 -161 151 -32 60 -34 68 -34 163 0 93 2 105 33 167
38 77 92 130 171 167 56 26 59 26 366 32 171 4 550 7 843 8 l532 1 0 425 c0
405 1 428 20 465 39 76 139 110 215 74z m-1607 -2354 c32 0 107 -73 193 -187
62 -82 112 -141 208 -243 33 -35 81 -139 81 -175 0 -72 -19 -105 -111 -192
-49 -47 -89 -92 -89 -100 0 -20 148 -190 238 -274 42 -39 120 -99 172 -133
101 -66 288 -159 302 -150 5 3 22 33 39 67 38 79 70 112 125 127 89 25 203 -6
389 -106 66 -36 141 -79 166 -97 26 -18 60 -40 78 -49 24 -13 31 -24 31 -48 0
-56 -56 -206 -104 -279 -101 -151 -278 -270 -404 -271 -178 -1 -625 158 -827
293 -179 120 -398 320 -555 508 -112 134 -140 173 -209 293 -106 184 -161 358
-161 508 0 96 20 169 68 252 82 140 253 277 327 261 11 -3 30 -5 43 -5z"/>
</g>
</svg>
